# xmcd
#
# Track frame offsets: 
#        150
#        10258
#        23431
#        36535
#        48014
#        59288
#        69399
#        80237
#        92978
#        104479
#        114906
#        127095
#        139704
#        150275
#        159609
#        171792
#        183695
#        194472
#        204880
#        216381
#        229694
#        241265
#        252586
#        263603
#        273615
#        284512
#
# Disc length: 3962 seconds
#
# Revision: 0
# Processed by: cddbd v1.5.2PL0 Copyright (c) Steve Scherf et al.
# Submitted via: ExactAudioCopy v0.99pb4
#
DISCID=790f781a
DTITLE=Various Artist - Your Wish Is Our Command: Northern Soul of Chicago
DYEAR=1975
DGENRE=Soul
TTITLE0=The Inspirations - Your Wish Is My Command
TTITLE1=Big Daddy Rogers - I'm A Big Man
TTITLE2=No No Starr - Swing Your Love My Way
TTITLE3=Fred Hughes - Walk On Back To You
TTITLE4=The Intensions - She Needs Somebody
TTITLE5=The Idols - Check Her Out
TTITLE6=Marvin L Sims - Disillusioned
TTITLE7=Saxie Russell - Psychedelic Soul Pt.1
TTITLE8=Joseph Moore - I Still Can't Get You
TTITLE9=Baby Huey and The Baby Sitters - Just Being Careful
TTITLE10=Geraldine Latham - Mr Fix-It!
TTITLE11=Jimmy Burns and The Fantastic Epics - You're Gonna Miss Me When
TTITLE11=I'm Gone
TTITLE12=Otis Clay - Show Place
TTITLE13=Accents - Spring Song (New Girl)
TTITLE14=The Danderliers - All The Way
TTITLE15=Carole Waller - Stop And Get A Hold Of Myself
TTITLE16=Jimmy Hughes - Lovely Ladies
TTITLE17=The Five Stairsteps - Don't Waste Your Time
TTITLE18=Betty Moorer - Speed Up
TTITLE19=The C.O.D.'s - I'm A Good Guy
TTITLE20=The Apocryphals - Baby, I Know I'm Losing You
TTITLE21=The Admirations - Don't Leave Me
TTITLE22=Lee Wilson - A Lonely Boy
TTITLE23=The Ringleaders - All Of My Life
TTITLE24=Bull and The Matadors - I Can't Forget
TTITLE25=Ruby Andrews - Just Loving You
EXTD=
EXTT0=
EXTT1=
EXTT2=
EXTT3=
EXTT4=
EXTT5=
EXTT6=
EXTT7=
EXTT8=
EXTT9=
EXTT10=
EXTT11=
EXTT12=
EXTT13=
EXTT14=
EXTT15=
EXTT16=
EXTT17=
EXTT18=
EXTT19=
EXTT20=
EXTT21=
EXTT22=
EXTT23=
EXTT24=
EXTT25=
PLAYORDER=
